<svg width="46" height="46" viewBox="0 0 46 46" fill="none" xmlns="http://www.w3.org/2000/svg">
<path d="M3.83691 23.0038C3.83914 32.4327 10.6955 40.4609 20.0078 41.9386V28.543H15.1452V23.0038H20.0136V18.7872C19.7959 16.7891 20.4784 14.7978 21.8759 13.3533C23.2734 11.9088 25.241 11.1608 27.2452 11.3122C28.6837 11.3354 30.1186 11.4635 31.5385 11.6955V16.4086H29.1158C28.2818 16.2994 27.4433 16.5748 26.8365 17.1574C26.2297 17.7399 25.9203 18.5665 25.9955 19.4043V23.0038H31.3066L30.4575 28.5449H25.9955V41.9386C36.0666 40.347 43.1288 31.1493 42.0658 21.0087C41.0029 10.8682 32.1869 3.33488 22.0047 3.86627C11.8224 4.39767 3.83853 12.8078 3.83691 23.0038Z" fill="#fff"/>
</svg>