<svg width="46" height="46" viewBox="0 0 46 46" fill="none" xmlns="http://www.w3.org/2000/svg">
<path d="M23.0039 40.3286C18.2889 40.3286 17.7331 40.3037 15.8931 40.2232C14.4582 40.176 13.0419 39.8843 11.7052 39.3607C9.39234 38.4606 7.56351 36.6311 6.66432 34.3179C6.16083 32.9763 5.88926 31.5589 5.86124 30.1262C5.75391 28.29 5.75391 27.6882 5.75391 23.0096C5.75391 18.2812 5.77882 17.7292 5.86124 15.8987C5.88987 14.468 6.16143 13.0525 6.66432 11.7127C7.56253 9.39651 9.39433 7.56541 11.7109 6.66808C13.05 6.16247 14.4658 5.89019 15.8969 5.86308C17.7273 5.75958 18.3292 5.75958 23.0039 5.75958C27.7572 5.75958 28.3035 5.7845 30.1147 5.86308C31.5495 5.89043 32.9691 6.16268 34.3122 6.66808C36.6282 7.56643 38.4596 9.39718 39.3588 11.7127C39.8708 13.072 40.1438 14.5096 40.1657 15.962C40.2731 17.7982 40.2731 18.3981 40.2731 23.0748C40.2731 27.7514 40.2462 28.3648 40.1657 30.1798C40.1372 31.6139 39.865 33.0326 39.3607 34.3754C38.4593 36.6902 36.6277 38.5204 34.3122 39.4201C32.971 39.9226 31.5544 40.1942 30.1224 40.2232C28.292 40.3286 27.6921 40.3286 23.0039 40.3286ZM22.9387 8.79367C18.2506 8.79367 17.7637 8.81667 15.9333 8.89908C14.8408 8.91356 13.7588 9.11517 12.7344 9.49517C11.2217 10.074 10.0247 11.2662 9.43966 12.7765C9.05673 13.8121 8.85509 14.9059 8.84357 16.0099C8.74199 17.8672 8.74199 18.354 8.74199 23.0096C8.74199 27.6096 8.75924 28.1673 8.84357 30.0131C8.86073 31.106 9.06226 32.1881 9.43966 33.2139C10.0255 34.7233 11.2223 35.9145 12.7344 36.4933C13.7581 36.8759 14.8405 37.0775 15.9333 37.0894C17.7887 37.1968 18.2774 37.1968 22.9387 37.1968C27.6403 37.1968 28.1272 37.1738 29.9422 37.0894C31.0355 37.0761 32.1183 36.8745 33.1431 36.4933C34.6466 35.9095 35.8358 34.721 36.4206 33.2178C36.8028 32.1813 37.0044 31.087 37.0167 29.9824H37.0377C37.1202 28.1501 37.1202 27.6613 37.1202 22.9789C37.1202 18.2965 37.0991 17.8039 37.0167 15.9735C36.9995 14.8819 36.7979 13.801 36.4206 12.7765C35.8372 11.2711 34.6478 10.0803 33.1431 9.49517C32.1185 9.11325 31.0356 8.91158 29.9422 8.89908C28.0888 8.79367 27.6039 8.79367 22.9387 8.79367ZM23.0039 31.8627C19.4197 31.865 16.1871 29.7078 14.8137 26.3972C13.4403 23.0866 14.1966 19.2746 16.7299 16.7391C19.2633 14.2036 23.0746 13.444 26.3864 14.8146C29.6982 16.1851 31.8581 19.4158 31.8589 23C31.8536 27.8895 27.8934 31.8532 23.0039 31.8627ZM23.0039 17.2462C19.8283 17.2462 17.2539 19.8205 17.2539 22.9962C17.2539 26.1718 19.8283 28.7462 23.0039 28.7462C26.1795 28.7462 28.7539 26.1718 28.7539 22.9962C28.7465 19.8236 26.1765 17.2535 23.0039 17.2462ZM32.2039 15.8796C31.0643 15.8754 30.1433 14.9492 30.1454 13.8096C30.1475 12.67 31.072 11.7473 32.2116 11.7473C33.3512 11.7473 34.2756 12.67 34.2777 13.8096C34.2782 14.3594 34.0598 14.8868 33.6707 15.2752C33.2815 15.6636 32.7537 15.8811 32.2039 15.8796Z" fill="#fff"/>
</svg>
