<svg width="46" height="46" viewBox="0 0 46 46" fill="none" xmlns="http://www.w3.org/2000/svg">
<path d="M23.0004 33.1104L15.0463 37.9021C14.6949 38.1257 14.3275 38.2216 13.9442 38.1896C13.5609 38.1577 13.2254 38.0299 12.9379 37.8063C12.6504 37.5827 12.4268 37.3032 12.2671 36.9677C12.1074 36.6323 12.0754 36.257 12.1713 35.8417L14.2796 26.7854L7.23585 20.7C6.91641 20.4125 6.71676 20.0851 6.63689 19.7177C6.55703 19.3504 6.58099 18.991 6.70877 18.6396C6.83655 18.2882 7.02821 18.0007 7.28377 17.7771C7.53932 17.5535 7.89071 17.4098 8.33794 17.3459L17.6338 16.5313L21.2275 8.00211C21.3872 7.61878 21.6348 7.33128 21.9702 7.13961C22.3056 6.94795 22.649 6.85211 23.0004 6.85211C23.3518 6.85211 23.6952 6.94795 24.0306 7.13961C24.3661 7.33128 24.6136 7.61878 24.7734 8.00211L28.3671 16.5313L37.6629 17.3459C38.1102 17.4098 38.4615 17.5535 38.7171 17.7771C38.9727 18.0007 39.1643 18.2882 39.2921 18.6396C39.4199 18.991 39.4438 19.3504 39.364 19.7177C39.2841 20.0851 39.0845 20.4125 38.765 20.7L31.7213 26.7854L33.8296 35.8417C33.9254 36.257 33.8935 36.6323 33.7338 36.9677C33.574 37.3032 33.3504 37.5827 33.0629 37.8063C32.7754 38.0299 32.44 38.1577 32.0567 38.1896C31.6734 38.2216 31.306 38.1257 30.9546 37.9021L23.0004 33.1104Z" fill="#fff"/>
</svg>
