<svg width="46" height="46" viewBox="0 0 46 46" fill="none" xmlns="http://www.w3.org/2000/svg">
<path d="M38.3233 12.8187C40.0415 11.7915 41.327 10.1741 41.94 8.2685C40.3255 9.22645 38.5591 9.90126 36.7171 10.2637C34.1633 7.56226 30.1171 6.90484 26.8394 8.65884C23.5617 10.4128 21.8639 14.144 22.6948 17.7675C16.0815 17.4355 9.92014 14.3116 5.74379 9.17317C3.56423 12.9326 4.67803 17.7383 8.28912 20.1557C6.98332 20.1137 5.70647 19.7601 4.56504 19.1245C4.56504 19.159 4.56504 19.1935 4.56504 19.228C4.5658 23.144 7.32576 26.5172 11.1641 27.2933C9.95291 27.6229 8.68244 27.6714 7.44963 27.4352C8.52909 30.7841 11.6156 33.0784 15.1335 33.1468C12.2199 35.4337 8.62162 36.6738 4.91771 36.6678C4.26119 36.6687 3.60519 36.6309 2.95312 36.5547C6.71437 38.9716 11.092 40.2545 15.5629 40.25C21.7829 40.2927 27.7606 37.8406 32.1588 33.442C36.5569 29.0435 39.0086 23.0656 38.9654 16.8456C38.9654 16.4891 38.9571 16.1345 38.9405 15.7818C40.5513 14.6177 41.9416 13.1755 43.046 11.523C41.5452 12.1882 39.9534 12.6249 38.3233 12.8187Z" fill="#fff"/>
</svg>
