<svg width="46" height="46" viewBox="0 0 46 46" fill="none" xmlns="http://www.w3.org/2000/svg">
    <path d="M13.417 15.3333C13.417 10.0406 17.7076 5.75 23.0003 5.75C28.2931 5.75 32.5837 10.0406 32.5837 15.3333C32.5837 20.6261 28.2931 24.9167 23.0003 24.9167C17.7076 24.9167 13.417 20.6261 13.417 15.3333ZM23.0003 21.0833C26.176 21.0833 28.7503 18.509 28.7503 15.3333C28.7503 12.1577 26.176 9.58333 23.0003 9.58333C19.8247 9.58333 17.2503 12.1577 17.2503 15.3333C17.2503 18.509 19.8247 21.0833 23.0003 21.0833Z" fill="#fff"/>
    <path d="M12.158 31.3244C9.28246 34.1999 7.66699 38.1 7.66699 42.1667H11.5003C11.5003 39.1167 12.7119 36.1916 14.8686 34.0349C17.0253 31.8783 19.9503 30.6667 23.0003 30.6667C26.0503 30.6667 28.9754 31.8783 31.1321 34.0349C33.2887 36.1916 34.5003 39.1167 34.5003 42.1667H38.3337C38.3337 38.1 36.7182 34.1999 33.8426 31.3244C30.9671 28.4488 27.067 26.8333 23.0003 26.8333C18.9337 26.8333 15.0336 28.4488 12.158 31.3244Z" fill="#fff"/>
</svg>
